<mxfile host="app.diagrams.net" modified="2023-05-31T10:57:36.569Z" agent="Mozilla/5.0 (X11; Ubuntu; Linux x86_64; rv:109.0) Gecko/20100101 Firefox/113.0" etag="Olc9p9VWkdMSEB0_0i0V" version="21.3.6" type="device">
  <diagram name="Page-1" id="MzHM1Ebuwn2UYsW7390A">
    <mxGraphModel dx="3027" dy="1767" grid="1" gridSize="10" guides="1" tooltips="1" connect="1" arrows="1" fold="1" page="1" pageScale="1" pageWidth="1654" pageHeight="1169" math="0" shadow="0">
      <root>
        <mxCell id="0" />
        <mxCell id="1" parent="0" />
        <mxCell id="4UQebfLzVkgeTfsJnJ6F-95" value="" style="rounded=0;whiteSpace=wrap;html=1;fillColor=#F8EBFF;dashed=1;strokeWidth=3;strokeColor=#9673A6;fillStyle=hatch;" vertex="1" parent="1">
          <mxGeometry x="940" y="770" width="620" height="270" as="geometry" />
        </mxCell>
        <mxCell id="4UQebfLzVkgeTfsJnJ6F-12" value="" style="rounded=0;whiteSpace=wrap;html=1;fillColor=#dae8fc;dashed=1;strokeWidth=3;strokeColor=#6c8ebf;fillStyle=hatch;" vertex="1" parent="1">
          <mxGeometry x="60" y="620" width="260" height="280" as="geometry" />
        </mxCell>
        <mxCell id="4UQebfLzVkgeTfsJnJ6F-2" value="" style="rounded=0;whiteSpace=wrap;html=1;fillColor=#dae8fc;dashed=1;strokeWidth=3;strokeColor=#6c8ebf;fillStyle=hatch;" vertex="1" parent="1">
          <mxGeometry x="60" y="160" width="320" height="280" as="geometry" />
        </mxCell>
        <mxCell id="4UQebfLzVkgeTfsJnJ6F-6" value="Detected audio" style="edgeStyle=orthogonalEdgeStyle;rounded=0;orthogonalLoop=1;jettySize=auto;html=1;exitX=0.5;exitY=1;exitDx=0;exitDy=0;entryX=0.5;entryY=0;entryDx=0;entryDy=0;labelBackgroundColor=default;fontSize=15;" edge="1" parent="1" source="4UQebfLzVkgeTfsJnJ6F-3" target="4UQebfLzVkgeTfsJnJ6F-5">
          <mxGeometry relative="1" as="geometry" />
        </mxCell>
        <mxCell id="4UQebfLzVkgeTfsJnJ6F-3" value="&lt;font style=&quot;font-size: 16px;&quot;&gt;Wait for the interactee to say something&lt;/font&gt;" style="rounded=0;whiteSpace=wrap;html=1;fillColor=#fff2cc;strokeColor=#d6b656;" vertex="1" parent="1">
          <mxGeometry x="80" y="180" width="140" height="80" as="geometry" />
        </mxCell>
        <mxCell id="4UQebfLzVkgeTfsJnJ6F-7" value="&lt;div style=&quot;font-size: 14px;&quot;&gt;&lt;font style=&quot;font-size: 14px;&quot;&gt;Return to listening&lt;/font&gt;&lt;/div&gt;&lt;div style=&quot;font-size: 14px;&quot;&gt;&lt;font style=&quot;font-size: 14px;&quot;&gt;regardless&lt;br style=&quot;font-size: 14px;&quot;&gt;&lt;/font&gt;&lt;/div&gt;" style="edgeStyle=orthogonalEdgeStyle;rounded=0;orthogonalLoop=1;jettySize=auto;html=1;exitX=1;exitY=0.5;exitDx=0;exitDy=0;entryX=1;entryY=0.5;entryDx=0;entryDy=0;fontSize=14;" edge="1" parent="1" source="4UQebfLzVkgeTfsJnJ6F-5" target="4UQebfLzVkgeTfsJnJ6F-3">
          <mxGeometry y="-40" relative="1" as="geometry">
            <Array as="points">
              <mxPoint x="260" y="380" />
              <mxPoint x="260" y="220" />
            </Array>
            <mxPoint as="offset" />
          </mxGeometry>
        </mxCell>
        <mxCell id="4UQebfLzVkgeTfsJnJ6F-11" value="&lt;div style=&quot;font-size: 16px;&quot;&gt;&lt;font style=&quot;font-size: 16px;&quot;&gt;Recognised text;&lt;/font&gt;&lt;/div&gt;&lt;div style=&quot;font-size: 16px;&quot;&gt;&lt;font style=&quot;font-size: 16px;&quot;&gt;packaged in JSON&lt;font style=&quot;font-size: 16px;&quot;&gt;&lt;br&gt;&lt;/font&gt;&lt;/font&gt;&lt;/div&gt;" style="edgeStyle=orthogonalEdgeStyle;rounded=0;orthogonalLoop=1;jettySize=auto;html=1;exitX=0.5;exitY=1;exitDx=0;exitDy=0;entryX=0.5;entryY=0;entryDx=0;entryDy=0;fillColor=#f8cecc;strokeColor=#b85450;strokeWidth=4;" edge="1" parent="1" source="4UQebfLzVkgeTfsJnJ6F-5" target="4UQebfLzVkgeTfsJnJ6F-10">
          <mxGeometry relative="1" as="geometry" />
        </mxCell>
        <mxCell id="4UQebfLzVkgeTfsJnJ6F-5" value="&lt;font style=&quot;font-size: 16px;&quot;&gt;Send audio to Speech Recognition API to transcribe text&lt;br&gt;&lt;/font&gt;" style="rounded=0;whiteSpace=wrap;html=1;fillColor=#fff2cc;strokeColor=#d6b656;" vertex="1" parent="1">
          <mxGeometry x="80" y="340" width="140" height="80" as="geometry" />
        </mxCell>
        <mxCell id="4UQebfLzVkgeTfsJnJ6F-19" style="edgeStyle=orthogonalEdgeStyle;rounded=0;orthogonalLoop=1;jettySize=auto;html=1;exitX=0.5;exitY=1;exitDx=0;exitDy=0;entryX=0.5;entryY=0;entryDx=0;entryDy=0;fillColor=#f8cecc;strokeColor=#b85450;strokeWidth=4;" edge="1" parent="1" source="4UQebfLzVkgeTfsJnJ6F-10" target="4UQebfLzVkgeTfsJnJ6F-14">
          <mxGeometry relative="1" as="geometry" />
        </mxCell>
        <mxCell id="4UQebfLzVkgeTfsJnJ6F-10" value="&lt;div style=&quot;font-size: 16px;&quot;&gt;&lt;font style=&quot;font-size: 16px;&quot;&gt;voice_recog_prefilter&lt;/font&gt;&lt;/div&gt;&lt;div style=&quot;font-size: 16px;&quot;&gt;&lt;font style=&quot;font-size: 16px;&quot;&gt;topic&lt;font style=&quot;font-size: 16px;&quot;&gt;&lt;br&gt;&lt;/font&gt;&lt;/font&gt;&lt;/div&gt;" style="rounded=0;whiteSpace=wrap;html=1;fillColor=#f8cecc;strokeColor=#b85450;" vertex="1" parent="1">
          <mxGeometry x="60" y="530" width="180" height="60" as="geometry" />
        </mxCell>
        <mxCell id="4UQebfLzVkgeTfsJnJ6F-13" value="&lt;div&gt;Discard message &lt;br&gt;&lt;/div&gt;&lt;div&gt;if disabled&lt;/div&gt;" style="edgeStyle=orthogonalEdgeStyle;rounded=0;orthogonalLoop=1;jettySize=auto;html=1;exitX=1;exitY=0.75;exitDx=0;exitDy=0;labelBackgroundColor=default;fontSize=15;entryX=0.5;entryY=-0.016;entryDx=0;entryDy=0;entryPerimeter=0;" edge="1" parent="1" source="4UQebfLzVkgeTfsJnJ6F-14" target="4UQebfLzVkgeTfsJnJ6F-18">
          <mxGeometry x="0.4202" relative="1" as="geometry">
            <mxPoint x="150" y="810" as="targetPoint" />
            <mxPoint as="offset" />
          </mxGeometry>
        </mxCell>
        <mxCell id="4UQebfLzVkgeTfsJnJ6F-23" style="edgeStyle=orthogonalEdgeStyle;rounded=0;orthogonalLoop=1;jettySize=auto;html=1;exitX=1;exitY=0.5;exitDx=0;exitDy=0;entryX=0;entryY=0.5;entryDx=0;entryDy=0;fillColor=#f8cecc;strokeColor=#b85450;strokeWidth=4;" edge="1" parent="1" source="4UQebfLzVkgeTfsJnJ6F-14" target="4UQebfLzVkgeTfsJnJ6F-22">
          <mxGeometry relative="1" as="geometry" />
        </mxCell>
        <mxCell id="4UQebfLzVkgeTfsJnJ6F-28" value="&lt;font style=&quot;font-size: 14px;&quot;&gt;Pass message through if enabled&lt;/font&gt;" style="edgeLabel;html=1;align=center;verticalAlign=middle;resizable=0;points=[];" vertex="1" connectable="0" parent="4UQebfLzVkgeTfsJnJ6F-23">
          <mxGeometry x="-0.1154" y="-3" relative="1" as="geometry">
            <mxPoint x="25" y="-23" as="offset" />
          </mxGeometry>
        </mxCell>
        <mxCell id="4UQebfLzVkgeTfsJnJ6F-14" value="&lt;font size=&quot;1&quot;&gt;Pass the message onto &#39;comm_topic&#39; if enabled&lt;br&gt;&lt;/font&gt;" style="rounded=0;whiteSpace=wrap;html=1;fillColor=#fff2cc;strokeColor=#d6b656;" vertex="1" parent="1">
          <mxGeometry x="80" y="640" width="140" height="100" as="geometry" />
        </mxCell>
        <mxCell id="4UQebfLzVkgeTfsJnJ6F-18" value="" style="html=1;verticalLabelPosition=bottom;align=center;labelBackgroundColor=#ffffff;verticalAlign=top;strokeWidth=4;strokeColor=#000000;shadow=0;dashed=0;shape=mxgraph.ios7.icons.trashcan;perimeterSpacing=2;" vertex="1" parent="1">
          <mxGeometry x="210" y="820" width="60" height="60" as="geometry" />
        </mxCell>
        <mxCell id="4UQebfLzVkgeTfsJnJ6F-22" value="&lt;font style=&quot;font-size: 24px;&quot;&gt;comm_topic&lt;br&gt;&lt;/font&gt;" style="rounded=0;whiteSpace=wrap;html=1;fillColor=#f8cecc;strokeColor=#b85450;" vertex="1" parent="1">
          <mxGeometry x="480" y="660" width="180" height="60" as="geometry" />
        </mxCell>
        <mxCell id="4UQebfLzVkgeTfsJnJ6F-25" value="&lt;font style=&quot;font-size: 20px;&quot;&gt;Voice Recognition Node&lt;br&gt;&lt;/font&gt;" style="text;html=1;strokeColor=none;fillColor=none;align=left;verticalAlign=bottom;whiteSpace=wrap;rounded=0;fontColor=#6C8EBF;" vertex="1" parent="1">
          <mxGeometry x="60" y="130" width="260" height="30" as="geometry" />
        </mxCell>
        <mxCell id="4UQebfLzVkgeTfsJnJ6F-27" value="&lt;font style=&quot;font-size: 19px;&quot;&gt;Voice Recognition Control Node&lt;br&gt;&lt;/font&gt;" style="text;html=1;strokeColor=none;fillColor=none;align=left;verticalAlign=bottom;whiteSpace=wrap;rounded=0;fontColor=#6C8EBF;rotation=-90;" vertex="1" parent="1">
          <mxGeometry x="-110" y="730" width="310" height="30" as="geometry" />
        </mxCell>
        <mxCell id="4UQebfLzVkgeTfsJnJ6F-29" value="" style="endArrow=classic;html=1;rounded=0;dashed=1;fillColor=#f5f5f5;strokeColor=#666666;" edge="1" parent="1">
          <mxGeometry width="50" height="50" relative="1" as="geometry">
            <mxPoint x="230" y="480" as="sourcePoint" />
            <mxPoint x="360" y="650" as="targetPoint" />
            <Array as="points">
              <mxPoint x="360" y="480" />
            </Array>
          </mxGeometry>
        </mxCell>
        <mxCell id="4UQebfLzVkgeTfsJnJ6F-36" value="" style="rounded=0;whiteSpace=wrap;html=1;fillColor=#dae8fc;dashed=1;strokeWidth=3;strokeColor=#6c8ebf;fillStyle=hatch;" vertex="1" parent="1">
          <mxGeometry x="560" y="810" width="320" height="280" as="geometry" />
        </mxCell>
        <mxCell id="4UQebfLzVkgeTfsJnJ6F-45" style="edgeStyle=orthogonalEdgeStyle;rounded=0;orthogonalLoop=1;jettySize=auto;html=1;exitX=0.5;exitY=1;exitDx=0;exitDy=0;entryX=0.5;entryY=0;entryDx=0;entryDy=0;" edge="1" parent="1" source="4UQebfLzVkgeTfsJnJ6F-38" target="4UQebfLzVkgeTfsJnJ6F-44">
          <mxGeometry relative="1" as="geometry" />
        </mxCell>
        <mxCell id="4UQebfLzVkgeTfsJnJ6F-38" value="&lt;font style=&quot;font-size: 16px;&quot;&gt;Did the message originally come from the Voice Recognition Node?&lt;br&gt;&lt;/font&gt;" style="rounded=0;whiteSpace=wrap;html=1;fillColor=#fff2cc;strokeColor=#d6b656;" vertex="1" parent="1">
          <mxGeometry x="610" y="830" width="140" height="80" as="geometry" />
        </mxCell>
        <mxCell id="4UQebfLzVkgeTfsJnJ6F-53" style="edgeStyle=orthogonalEdgeStyle;rounded=0;orthogonalLoop=1;jettySize=auto;html=1;exitX=0;exitY=0.5;exitDx=0;exitDy=0;entryX=1;entryY=0.5;entryDx=0;entryDy=0;fillColor=#f8cecc;strokeColor=#b85450;strokeWidth=4;" edge="1" parent="1" source="4UQebfLzVkgeTfsJnJ6F-40" target="4UQebfLzVkgeTfsJnJ6F-52">
          <mxGeometry relative="1" as="geometry" />
        </mxCell>
        <mxCell id="4UQebfLzVkgeTfsJnJ6F-54" value="&lt;font style=&quot;font-size: 14px;&quot;&gt;Either &quot;enable&quot; or &quot;disable&quot;&lt;br&gt;&lt;/font&gt;" style="edgeLabel;html=1;align=center;verticalAlign=middle;resizable=0;points=[];" vertex="1" connectable="0" parent="4UQebfLzVkgeTfsJnJ6F-53">
          <mxGeometry x="0.1095" y="2" relative="1" as="geometry">
            <mxPoint x="-1" y="-32" as="offset" />
          </mxGeometry>
        </mxCell>
        <mxCell id="4UQebfLzVkgeTfsJnJ6F-40" value="&lt;font style=&quot;font-size: 16px;&quot;&gt;Send a message to disable voice recognition while talking; message to re-enable once done&lt;br&gt;&lt;/font&gt;" style="rounded=0;whiteSpace=wrap;html=1;fillColor=#fff2cc;strokeColor=#d6b656;" vertex="1" parent="1">
          <mxGeometry x="580" y="990" width="200" height="80" as="geometry" />
        </mxCell>
        <mxCell id="4UQebfLzVkgeTfsJnJ6F-41" value="&lt;div&gt;&lt;font style=&quot;font-size: 20px;&quot;&gt;&lt;br&gt;&lt;/font&gt;&lt;/div&gt;&lt;div&gt;&lt;font style=&quot;font-size: 20px;&quot;&gt;Text-to-Speech Node&lt;/font&gt;&lt;/div&gt;" style="text;html=1;strokeColor=none;fillColor=none;align=left;verticalAlign=bottom;whiteSpace=wrap;rounded=0;fontColor=#6C8EBF;" vertex="1" parent="1">
          <mxGeometry x="560" y="780" width="260" height="30" as="geometry" />
        </mxCell>
        <mxCell id="4UQebfLzVkgeTfsJnJ6F-44" value="" style="shape=image;html=1;verticalAlign=top;verticalLabelPosition=bottom;labelBackgroundColor=#ffffff;imageAspect=0;aspect=fixed;image=https://cdn1.iconfinder.com/data/icons/ui-essential-17/32/UI_Essential_Outline_1_essential-app-ui-sound-speaker-128.png" vertex="1" parent="1">
          <mxGeometry x="790" y="990" width="80" height="80" as="geometry" />
        </mxCell>
        <mxCell id="4UQebfLzVkgeTfsJnJ6F-37" value="&lt;div&gt;If not from Voice &lt;br&gt;&lt;/div&gt;&lt;div&gt;Rec. node&lt;/div&gt;" style="edgeStyle=orthogonalEdgeStyle;rounded=0;orthogonalLoop=1;jettySize=auto;html=1;exitX=0.5;exitY=1;exitDx=0;exitDy=0;entryX=0.5;entryY=0;entryDx=0;entryDy=0;labelBackgroundColor=default;fontSize=15;" edge="1" parent="1" source="4UQebfLzVkgeTfsJnJ6F-38" target="4UQebfLzVkgeTfsJnJ6F-40">
          <mxGeometry relative="1" as="geometry" />
        </mxCell>
        <mxCell id="4UQebfLzVkgeTfsJnJ6F-50" style="edgeStyle=orthogonalEdgeStyle;rounded=0;orthogonalLoop=1;jettySize=auto;html=1;exitX=0.25;exitY=1;exitDx=0;exitDy=0;entryX=0;entryY=0.5;entryDx=0;entryDy=0;fillColor=#f8cecc;strokeColor=#b85450;strokeWidth=4;" edge="1" parent="1" source="4UQebfLzVkgeTfsJnJ6F-22" target="4UQebfLzVkgeTfsJnJ6F-38">
          <mxGeometry relative="1" as="geometry">
            <mxPoint x="520" y="829.5" as="sourcePoint" />
            <mxPoint x="780" y="829.5" as="targetPoint" />
          </mxGeometry>
        </mxCell>
        <mxCell id="4UQebfLzVkgeTfsJnJ6F-52" value="&lt;div style=&quot;font-size: 16px;&quot;&gt;&lt;font style=&quot;font-size: 16px;&quot;&gt;voice_recog_control&lt;/font&gt;&lt;/div&gt;&lt;div style=&quot;font-size: 16px;&quot;&gt;&lt;font style=&quot;font-size: 16px;&quot;&gt;topic&lt;font style=&quot;font-size: 16px;&quot;&gt;&lt;br&gt;&lt;/font&gt;&lt;/font&gt;&lt;/div&gt;" style="rounded=0;whiteSpace=wrap;html=1;fillColor=#f8cecc;strokeColor=#b85450;" vertex="1" parent="1">
          <mxGeometry x="150" y="1000" width="180" height="60" as="geometry" />
        </mxCell>
        <mxCell id="4UQebfLzVkgeTfsJnJ6F-55" style="edgeStyle=orthogonalEdgeStyle;rounded=0;orthogonalLoop=1;jettySize=auto;html=1;exitX=0;exitY=0.5;exitDx=0;exitDy=0;fillColor=#f8cecc;strokeColor=#b85450;strokeWidth=4;entryX=0.25;entryY=1;entryDx=0;entryDy=0;" edge="1" parent="1" source="4UQebfLzVkgeTfsJnJ6F-52" target="4UQebfLzVkgeTfsJnJ6F-14">
          <mxGeometry relative="1" as="geometry">
            <mxPoint x="670" y="700" as="sourcePoint" />
            <mxPoint x="10" y="1060" as="targetPoint" />
            <Array as="points">
              <mxPoint x="115" y="1030" />
            </Array>
          </mxGeometry>
        </mxCell>
        <mxCell id="4UQebfLzVkgeTfsJnJ6F-56" value="" style="rounded=0;whiteSpace=wrap;html=1;fillColor=#dae8fc;dashed=1;strokeWidth=3;strokeColor=#6c8ebf;fillStyle=hatch;" vertex="1" parent="1">
          <mxGeometry x="910" y="120" width="650" height="430" as="geometry" />
        </mxCell>
        <mxCell id="4UQebfLzVkgeTfsJnJ6F-57" value="&lt;div&gt;Message came from &lt;br&gt;&lt;/div&gt;&lt;div&gt;Voice Recog. Node&lt;/div&gt;" style="edgeStyle=orthogonalEdgeStyle;rounded=0;orthogonalLoop=1;jettySize=auto;html=1;exitX=0.5;exitY=1;exitDx=0;exitDy=0;entryX=0.5;entryY=0;entryDx=0;entryDy=0;labelBackgroundColor=default;fontSize=15;" edge="1" parent="1" source="4UQebfLzVkgeTfsJnJ6F-58" target="4UQebfLzVkgeTfsJnJ6F-60">
          <mxGeometry relative="1" as="geometry" />
        </mxCell>
        <mxCell id="4UQebfLzVkgeTfsJnJ6F-58" value="&lt;font style=&quot;font-size: 16px;&quot;&gt;Check where the message came from&lt;br&gt;&lt;/font&gt;" style="rounded=0;whiteSpace=wrap;html=1;fillColor=#fff2cc;strokeColor=#d6b656;" vertex="1" parent="1">
          <mxGeometry x="930" y="140" width="140" height="80" as="geometry" />
        </mxCell>
        <mxCell id="4UQebfLzVkgeTfsJnJ6F-68" style="edgeStyle=orthogonalEdgeStyle;rounded=0;orthogonalLoop=1;jettySize=auto;html=1;exitX=0.5;exitY=1;exitDx=0;exitDy=0;entryX=0.5;entryY=0;entryDx=0;entryDy=0;" edge="1" parent="1" source="4UQebfLzVkgeTfsJnJ6F-60" target="4UQebfLzVkgeTfsJnJ6F-67">
          <mxGeometry relative="1" as="geometry" />
        </mxCell>
        <mxCell id="4UQebfLzVkgeTfsJnJ6F-60" value="&lt;font style=&quot;font-size: 14px;&quot;&gt;Add the content of the message to the dialogue as the &#39;USER&#39; character&lt;br&gt;&lt;/font&gt;" style="rounded=0;whiteSpace=wrap;html=1;fillColor=#fff2cc;strokeColor=#d6b656;" vertex="1" parent="1">
          <mxGeometry x="930" y="300" width="140" height="80" as="geometry" />
        </mxCell>
        <mxCell id="4UQebfLzVkgeTfsJnJ6F-61" value="&lt;font style=&quot;font-size: 20px;&quot;&gt;Response Generation Node&lt;br&gt;&lt;/font&gt;" style="text;html=1;strokeColor=none;fillColor=none;align=left;verticalAlign=bottom;whiteSpace=wrap;rounded=0;fontColor=#6C8EBF;" vertex="1" parent="1">
          <mxGeometry x="910" y="90" width="260" height="30" as="geometry" />
        </mxCell>
        <mxCell id="4UQebfLzVkgeTfsJnJ6F-62" value="&lt;font style=&quot;font-size: 13px;&quot;&gt;Add the content of the message to the dialogue as the &#39;OPERATOR&#39; character&lt;br&gt;&lt;/font&gt;" style="rounded=0;whiteSpace=wrap;html=1;fillColor=#fff2cc;strokeColor=#d6b656;" vertex="1" parent="1">
          <mxGeometry x="1110" y="300" width="140" height="80" as="geometry" />
        </mxCell>
        <mxCell id="4UQebfLzVkgeTfsJnJ6F-63" value="&lt;font style=&quot;font-size: 13px;&quot;&gt;Add the content of the message to the dialogue as the &#39;SYSTEM&#39; character&lt;br&gt;&lt;/font&gt;" style="rounded=0;whiteSpace=wrap;html=1;fillColor=#fff2cc;strokeColor=#d6b656;" vertex="1" parent="1">
          <mxGeometry x="1290" y="300" width="140" height="80" as="geometry" />
        </mxCell>
        <mxCell id="4UQebfLzVkgeTfsJnJ6F-65" value="&lt;div&gt;Message came from &lt;br&gt;&lt;/div&gt;&lt;div&gt;Operator Input Node&lt;/div&gt;" style="edgeStyle=orthogonalEdgeStyle;rounded=0;orthogonalLoop=1;jettySize=auto;html=1;exitX=1;exitY=0.75;exitDx=0;exitDy=0;entryX=0.5;entryY=0;entryDx=0;entryDy=0;labelBackgroundColor=default;fontSize=15;" edge="1" parent="1" source="4UQebfLzVkgeTfsJnJ6F-58" target="4UQebfLzVkgeTfsJnJ6F-62">
          <mxGeometry x="0.619" relative="1" as="geometry">
            <mxPoint x="1010" y="230" as="sourcePoint" />
            <mxPoint x="1010" y="310" as="targetPoint" />
            <mxPoint as="offset" />
          </mxGeometry>
        </mxCell>
        <mxCell id="4UQebfLzVkgeTfsJnJ6F-66" value="&lt;div&gt;Message came from &lt;br&gt;&lt;/div&gt;&lt;div&gt;Response Gen. Node&lt;/div&gt;" style="edgeStyle=orthogonalEdgeStyle;rounded=0;orthogonalLoop=1;jettySize=auto;html=1;exitX=1;exitY=0.25;exitDx=0;exitDy=0;entryX=0.5;entryY=0;entryDx=0;entryDy=0;labelBackgroundColor=default;fontSize=15;" edge="1" parent="1" source="4UQebfLzVkgeTfsJnJ6F-58" target="4UQebfLzVkgeTfsJnJ6F-63">
          <mxGeometry x="0.814" relative="1" as="geometry">
            <mxPoint x="1020" y="240" as="sourcePoint" />
            <mxPoint x="1020" y="320" as="targetPoint" />
            <mxPoint as="offset" />
          </mxGeometry>
        </mxCell>
        <mxCell id="4UQebfLzVkgeTfsJnJ6F-70" style="edgeStyle=orthogonalEdgeStyle;rounded=0;orthogonalLoop=1;jettySize=auto;html=1;exitX=1;exitY=0.5;exitDx=0;exitDy=0;entryX=0;entryY=0.5;entryDx=0;entryDy=0;" edge="1" parent="1" source="4UQebfLzVkgeTfsJnJ6F-67" target="4UQebfLzVkgeTfsJnJ6F-69">
          <mxGeometry relative="1" as="geometry" />
        </mxCell>
        <mxCell id="4UQebfLzVkgeTfsJnJ6F-67" value="&lt;font style=&quot;font-size: 14px;&quot;&gt;Add a &#39;SYSTEM: &#39; to the end of the dialogue&lt;br&gt;&lt;/font&gt;" style="rounded=0;whiteSpace=wrap;html=1;fillColor=#fff2cc;strokeColor=#d6b656;" vertex="1" parent="1">
          <mxGeometry x="930" y="420" width="140" height="80" as="geometry" />
        </mxCell>
        <mxCell id="4UQebfLzVkgeTfsJnJ6F-72" style="edgeStyle=orthogonalEdgeStyle;rounded=0;orthogonalLoop=1;jettySize=auto;html=1;exitX=1;exitY=0.5;exitDx=0;exitDy=0;entryX=0;entryY=0.5;entryDx=0;entryDy=0;" edge="1" parent="1" source="4UQebfLzVkgeTfsJnJ6F-69" target="4UQebfLzVkgeTfsJnJ6F-71">
          <mxGeometry relative="1" as="geometry" />
        </mxCell>
        <mxCell id="4UQebfLzVkgeTfsJnJ6F-73" value="&lt;div style=&quot;font-size: 14px;&quot;&gt;&lt;font style=&quot;font-size: 14px;&quot;&gt;If response &lt;br&gt;&lt;/font&gt;&lt;/div&gt;&lt;div style=&quot;font-size: 14px;&quot;&gt;&lt;font style=&quot;font-size: 14px;&quot;&gt;not blank&lt;/font&gt;&lt;/div&gt;" style="edgeLabel;html=1;align=center;verticalAlign=middle;resizable=0;points=[];" vertex="1" connectable="0" parent="4UQebfLzVkgeTfsJnJ6F-72">
          <mxGeometry x="-0.2103" y="-2" relative="1" as="geometry">
            <mxPoint x="13" y="-2" as="offset" />
          </mxGeometry>
        </mxCell>
        <mxCell id="4UQebfLzVkgeTfsJnJ6F-69" value="&lt;font style=&quot;font-size: 14px;&quot;&gt;Send the dialogue to the OpenAI API as a prompt for Text Completion model&lt;br&gt;&lt;/font&gt;" style="rounded=0;whiteSpace=wrap;html=1;fillColor=#fff2cc;strokeColor=#d6b656;" vertex="1" parent="1">
          <mxGeometry x="1110" y="420" width="140" height="80" as="geometry" />
        </mxCell>
        <mxCell id="4UQebfLzVkgeTfsJnJ6F-71" value="&lt;font style=&quot;font-size: 13px;&quot;&gt;Apply post-processing (remove extra whitespace, stop it from escaping dialogue format)&lt;br&gt;&lt;/font&gt;" style="rounded=0;whiteSpace=wrap;html=1;fillColor=#fff2cc;strokeColor=#d6b656;" vertex="1" parent="1">
          <mxGeometry x="1370" y="420" width="140" height="80" as="geometry" />
        </mxCell>
        <mxCell id="4UQebfLzVkgeTfsJnJ6F-75" value="&lt;div style=&quot;font-size: 16px;&quot;&gt;&lt;font style=&quot;font-size: 16px;&quot;&gt;Generated text;&lt;/font&gt;&lt;/div&gt;&lt;div style=&quot;font-size: 16px;&quot;&gt;&lt;font style=&quot;font-size: 16px;&quot;&gt;packaged in JSON&lt;font style=&quot;font-size: 16px;&quot;&gt;&lt;br&gt;&lt;/font&gt;&lt;/font&gt;&lt;/div&gt;" style="edgeStyle=orthogonalEdgeStyle;rounded=0;orthogonalLoop=1;jettySize=auto;html=1;exitX=0.5;exitY=1;exitDx=0;exitDy=0;entryX=0.75;entryY=0;entryDx=0;entryDy=0;fillColor=#f8cecc;strokeColor=#b85450;strokeWidth=4;" edge="1" parent="1" source="4UQebfLzVkgeTfsJnJ6F-71" target="4UQebfLzVkgeTfsJnJ6F-22">
          <mxGeometry x="-0.5939" y="-40" relative="1" as="geometry">
            <mxPoint x="979.57" y="620" as="sourcePoint" />
            <mxPoint x="979.57" y="730" as="targetPoint" />
            <Array as="points">
              <mxPoint x="1440" y="620" />
              <mxPoint x="615" y="620" />
            </Array>
            <mxPoint as="offset" />
          </mxGeometry>
        </mxCell>
        <mxCell id="4UQebfLzVkgeTfsJnJ6F-77" style="edgeStyle=orthogonalEdgeStyle;rounded=0;orthogonalLoop=1;jettySize=auto;html=1;exitX=0.5;exitY=0;exitDx=0;exitDy=0;entryX=0;entryY=0.5;entryDx=0;entryDy=0;fillColor=#f8cecc;strokeColor=#b85450;strokeWidth=4;" edge="1" parent="1" source="4UQebfLzVkgeTfsJnJ6F-22" target="4UQebfLzVkgeTfsJnJ6F-58">
          <mxGeometry relative="1" as="geometry">
            <mxPoint x="670" y="700" as="sourcePoint" />
            <mxPoint x="910" y="780" as="targetPoint" />
          </mxGeometry>
        </mxCell>
        <mxCell id="4UQebfLzVkgeTfsJnJ6F-78" value="" style="endArrow=classic;html=1;rounded=0;dashed=1;fillColor=#f5f5f5;strokeColor=#666666;" edge="1" parent="1">
          <mxGeometry width="50" height="50" relative="1" as="geometry">
            <mxPoint x="1280" y="580" as="sourcePoint" />
            <mxPoint x="840" y="200" as="targetPoint" />
            <Array as="points">
              <mxPoint x="840" y="580" />
            </Array>
          </mxGeometry>
        </mxCell>
        <mxCell id="4UQebfLzVkgeTfsJnJ6F-79" value="&lt;div style=&quot;font-size: 14px;&quot;&gt;&lt;font style=&quot;font-size: 14px;&quot;&gt;Generated messages are added to the &lt;br&gt;&lt;/font&gt;&lt;/div&gt;&lt;div style=&quot;font-size: 14px;&quot;&gt;&lt;font style=&quot;font-size: 14px;&quot;&gt;dialogue by allowing the node to listen &lt;br&gt;&lt;/font&gt;&lt;/div&gt;&lt;div style=&quot;font-size: 14px;&quot;&gt;&lt;font style=&quot;font-size: 14px;&quot;&gt;to the same topic its publishing to&lt;/font&gt;&lt;/div&gt;" style="edgeLabel;html=1;align=center;verticalAlign=middle;resizable=0;points=[];fontColor=#808080;" vertex="1" connectable="0" parent="4UQebfLzVkgeTfsJnJ6F-78">
          <mxGeometry x="0.3075" y="1" relative="1" as="geometry">
            <mxPoint x="-59" y="-137" as="offset" />
          </mxGeometry>
        </mxCell>
        <mxCell id="4UQebfLzVkgeTfsJnJ6F-80" value="" style="rounded=0;whiteSpace=wrap;html=1;fillColor=#dae8fc;dashed=1;strokeWidth=3;strokeColor=#6c8ebf;fillStyle=hatch;" vertex="1" parent="1">
          <mxGeometry x="960" y="810" width="260" height="210" as="geometry" />
        </mxCell>
        <mxCell id="4UQebfLzVkgeTfsJnJ6F-82" value="&lt;font style=&quot;font-size: 16px;&quot;&gt;Add the content of the message to the chat-log next to the source of the message&lt;br&gt;&lt;/font&gt;" style="rounded=0;whiteSpace=wrap;html=1;fillColor=#fff2cc;strokeColor=#d6b656;" vertex="1" parent="1">
          <mxGeometry x="980" y="830" width="220" height="80" as="geometry" />
        </mxCell>
        <mxCell id="4UQebfLzVkgeTfsJnJ6F-84" value="&lt;div&gt;&lt;font style=&quot;font-size: 20px;&quot;&gt;&lt;br&gt;&lt;/font&gt;&lt;/div&gt;&lt;div&gt;&lt;font style=&quot;font-size: 20px;&quot;&gt;Chat-Log Node&lt;/font&gt;&lt;/div&gt;" style="text;html=1;strokeColor=none;fillColor=none;align=left;verticalAlign=bottom;whiteSpace=wrap;rounded=0;fontColor=#6C8EBF;" vertex="1" parent="1">
          <mxGeometry x="960" y="780" width="260" height="30" as="geometry" />
        </mxCell>
        <mxCell id="4UQebfLzVkgeTfsJnJ6F-87" style="edgeStyle=orthogonalEdgeStyle;rounded=0;orthogonalLoop=1;jettySize=auto;html=1;exitX=0.75;exitY=1;exitDx=0;exitDy=0;entryX=0;entryY=0.5;entryDx=0;entryDy=0;fillColor=#f8cecc;strokeColor=#b85450;strokeWidth=4;" edge="1" parent="1" source="4UQebfLzVkgeTfsJnJ6F-22" target="4UQebfLzVkgeTfsJnJ6F-82">
          <mxGeometry relative="1" as="geometry">
            <mxPoint x="535" y="730" as="sourcePoint" />
            <mxPoint x="620" y="880" as="targetPoint" />
            <Array as="points">
              <mxPoint x="615" y="760" />
              <mxPoint x="920" y="760" />
              <mxPoint x="920" y="870" />
            </Array>
          </mxGeometry>
        </mxCell>
        <mxCell id="4UQebfLzVkgeTfsJnJ6F-88" value="" style="rounded=0;whiteSpace=wrap;html=1;fillColor=#dae8fc;dashed=1;strokeWidth=3;strokeColor=#6c8ebf;fillStyle=hatch;" vertex="1" parent="1">
          <mxGeometry x="1260" y="810" width="280" height="170" as="geometry" />
        </mxCell>
        <mxCell id="4UQebfLzVkgeTfsJnJ6F-89" value="&lt;font style=&quot;font-size: 16px;&quot;&gt;Wait for the human operator to input a message&lt;br&gt;&lt;/font&gt;" style="rounded=0;whiteSpace=wrap;html=1;fillColor=#fff2cc;strokeColor=#d6b656;" vertex="1" parent="1">
          <mxGeometry x="1280" y="830" width="240" height="80" as="geometry" />
        </mxCell>
        <mxCell id="4UQebfLzVkgeTfsJnJ6F-90" value="&lt;div&gt;&lt;font style=&quot;font-size: 20px;&quot;&gt;&lt;br&gt;&lt;/font&gt;&lt;/div&gt;&lt;div&gt;&lt;font style=&quot;font-size: 20px;&quot;&gt;Human Operator Input Node&lt;/font&gt;&lt;/div&gt;" style="text;html=1;strokeColor=none;fillColor=none;align=left;verticalAlign=bottom;whiteSpace=wrap;rounded=0;fontColor=#6C8EBF;" vertex="1" parent="1">
          <mxGeometry x="1260" y="780" width="260" height="30" as="geometry" />
        </mxCell>
        <mxCell id="4UQebfLzVkgeTfsJnJ6F-92" value="&lt;div style=&quot;font-size: 16px;&quot;&gt;&lt;font style=&quot;font-size: 16px;&quot;&gt;Manually-typed text;&lt;/font&gt;&lt;/div&gt;&lt;div style=&quot;font-size: 16px;&quot;&gt;&lt;font style=&quot;font-size: 16px;&quot;&gt;packaged in JSON&lt;font style=&quot;font-size: 16px;&quot;&gt;&lt;br&gt;&lt;/font&gt;&lt;/font&gt;&lt;/div&gt;" style="edgeStyle=orthogonalEdgeStyle;rounded=0;orthogonalLoop=1;jettySize=auto;html=1;fillColor=#f8cecc;strokeColor=#b85450;strokeWidth=4;exitX=1;exitY=0.5;exitDx=0;exitDy=0;entryX=1;entryY=0.5;entryDx=0;entryDy=0;" edge="1" parent="1" source="4UQebfLzVkgeTfsJnJ6F-89" target="4UQebfLzVkgeTfsJnJ6F-22">
          <mxGeometry x="-0.4137" y="40" relative="1" as="geometry">
            <mxPoint x="1370" y="700" as="sourcePoint" />
            <mxPoint x="860" y="680" as="targetPoint" />
            <Array as="points">
              <mxPoint x="1580" y="870" />
              <mxPoint x="1580" y="690" />
            </Array>
            <mxPoint as="offset" />
          </mxGeometry>
        </mxCell>
        <mxCell id="4UQebfLzVkgeTfsJnJ6F-94" style="edgeStyle=orthogonalEdgeStyle;rounded=0;orthogonalLoop=1;jettySize=auto;html=1;exitX=0.75;exitY=1;exitDx=0;exitDy=0;entryX=0.25;entryY=1;entryDx=0;entryDy=0;" edge="1" parent="1" source="4UQebfLzVkgeTfsJnJ6F-89" target="4UQebfLzVkgeTfsJnJ6F-89">
          <mxGeometry relative="1" as="geometry">
            <Array as="points">
              <mxPoint x="1460" y="940" />
              <mxPoint x="1340" y="940" />
            </Array>
          </mxGeometry>
        </mxCell>
        <mxCell id="4UQebfLzVkgeTfsJnJ6F-96" value="&lt;div&gt;&lt;font style=&quot;font-size: 20px;&quot; color=&quot;#9673a6&quot;&gt;Nodes for Human Operator / Debug Use&lt;br&gt;&lt;/font&gt;&lt;/div&gt;" style="text;html=1;strokeColor=none;fillColor=none;align=left;verticalAlign=bottom;whiteSpace=wrap;rounded=0;fontColor=#6C8EBF;" vertex="1" parent="1">
          <mxGeometry x="940" y="1040" width="380" height="30" as="geometry" />
        </mxCell>
        <mxCell id="4UQebfLzVkgeTfsJnJ6F-99" value="&lt;div&gt;&lt;font color=&quot;#808080&quot;&gt;All messages sent to the &#39;comm_topic&#39; are packaged with &lt;br&gt;&lt;/font&gt;&lt;/div&gt;&lt;div&gt;&lt;font color=&quot;#808080&quot;&gt;the message content and name of its original source &lt;/font&gt;&lt;/div&gt;" style="text;html=1;strokeColor=none;fillColor=none;align=center;verticalAlign=middle;whiteSpace=wrap;rounded=0;" vertex="1" parent="1">
          <mxGeometry x="590" y="520" width="220" height="80" as="geometry" />
        </mxCell>
        <mxCell id="4UQebfLzVkgeTfsJnJ6F-100" value="&lt;font style=&quot;font-size: 60px;&quot;&gt;&lt;b style=&quot;&quot;&gt;CONVERSATION SUB-SYSTEM&lt;/b&gt;&lt;font style=&quot;font-size: 60px;&quot;&gt;&lt;br&gt;&lt;/font&gt;&lt;/font&gt;" style="text;html=1;strokeColor=none;fillColor=none;align=center;verticalAlign=middle;whiteSpace=wrap;rounded=0;" vertex="1" parent="1">
          <mxGeometry x="10" y="20" width="900" height="80" as="geometry" />
        </mxCell>
        <mxCell id="4UQebfLzVkgeTfsJnJ6F-102" value="&lt;font color=&quot;#808080&quot;&gt;This chat-log is handled in isolation of the dialogue of Response Gen. Node; allows for entirely headless/autonomous operation; or manual communication only&lt;br&gt;&lt;/font&gt;" style="text;html=1;strokeColor=none;fillColor=none;align=center;verticalAlign=middle;whiteSpace=wrap;rounded=0;" vertex="1" parent="1">
          <mxGeometry x="980" y="940" width="220" height="80" as="geometry" />
        </mxCell>
        <mxCell id="4UQebfLzVkgeTfsJnJ6F-103" value="&lt;font style=&quot;font-size: 48px;&quot; color=&quot;#808080&quot;&gt;&lt;b style=&quot;&quot;&gt;JACOB TOLLER&lt;/b&gt;&lt;font style=&quot;font-size: 48px;&quot;&gt;&lt;br&gt;&lt;/font&gt;&lt;/font&gt;" style="text;html=1;strokeColor=none;fillColor=none;align=center;verticalAlign=middle;whiteSpace=wrap;rounded=0;" vertex="1" parent="1">
          <mxGeometry x="1220" y="20" width="410" height="70" as="geometry" />
        </mxCell>
      </root>
    </mxGraphModel>
  </diagram>
</mxfile>
